HIERARCHY
ROOT Hips
{
 OFFSET 0.000000 0.000000 0.000000
 CHANNELS 6 Xposition Yposition Zposition Yrotation Xrotation Zrotation
 JOINT Chest
 {
  OFFSET 0.000000 9.588913 -0.003946
  CHANNELS 3 Yrotation Xrotation Zrotation
  JOINT Chest2
  {
   OFFSET 0.000000 9.541882 0.008053
   CHANNELS 3 Yrotation Xrotation Zrotation
   JOINT Chest3
   {
    OFFSET 0.000000 9.501360 0.000000
    CHANNELS 3 Yrotation Xrotation Zrotation
    JOINT Chest4
    {
     OFFSET 0.000000 9.491660 0.000000
     CHANNELS 3 Yrotation Xrotation Zrotation
     JOINT Neck
     {
      OFFSET 0.000000 14.331917 0.000000
      CHANNELS 3 Yrotation Xrotation Zrotation
      JOINT Head
      {
       OFFSET 0.000000 8.884799 0.017034
       CHANNELS 3 Yrotation Xrotation Zrotation
       End Site
       {
        OFFSET 0.000000 16.896195 0.008993
       }
      }
     }
     JOINT RightCollar
     {
      OFFSET -2.923010 9.499495 0.000000
      CHANNELS 3 Yrotation Xrotation Zrotation
      JOINT RightShoulder
      {
       OFFSET -13.795216 0.000000 0.000000
       CHANNELS 3 Yrotation Xrotation Zrotation
       JOINT RightElbow
       {
        OFFSET -30.272209 0.000000 0.000000
        CHANNELS 3 Yrotation Xrotation Zrotation
        JOINT RightWrist
        {
         OFFSET -24.478199 0.000000 0.000000
         CHANNELS 3 Yrotation Xrotation Zrotation
         End Site
         {
          OFFSET -18.090752 0.000000 0.000000
         }
        }
       }
      }
     }
     JOINT LeftCollar
     {
      OFFSET 2.923010 9.499495 0.000000
      CHANNELS 3 Yrotation Xrotation Zrotation
      JOINT LeftShoulder
      {
       OFFSET 13.795216 0.000000 0.000000
       CHANNELS 3 Yrotation Xrotation Zrotation
       JOINT LeftElbow
       {
        OFFSET 30.272209 0.000000 0.000000
        CHANNELS 3 Yrotation Xrotation Zrotation
        JOINT LeftWrist
        {
         OFFSET 24.478199 0.000000 0.000000
         CHANNELS 3 Yrotation Xrotation Zrotation
         End Site
         {
          OFFSET 18.090752 0.000000 0.000000
         }
        }
       }
      }
     }
    }
   }
  }
 }
 JOINT RightHip
 {
  OFFSET -7.826875 0.019532 0.001973
  CHANNELS 3 Yrotation Xrotation Zrotation
  JOINT RightKnee
  {
   OFFSET 0.000000 -40.546152 -0.001885
   CHANNELS 3 Yrotation Xrotation Zrotation
   JOINT RightAnkle
   {
    OFFSET 0.000000 -39.417092 -0.003189
    CHANNELS 3 Yrotation Xrotation Zrotation
    JOINT RightToe
    {
     OFFSET 0.000000 -7.579396 17.243563
     CHANNELS 3 Yrotation Xrotation Zrotation
     End Site
     {
      OFFSET 0.000000 -1.500329 6.694466
     }
    }
   }
  }
 }
 JOINT LeftHip
 {
  OFFSET 7.826875 0.019532 0.001973
  CHANNELS 3 Yrotation Xrotation Zrotation
  JOINT LeftKnee
  {
   OFFSET 0.000000 -40.546152 -0.001885
   CHANNELS 3 Yrotation Xrotation Zrotation
   JOINT LeftAnkle
   {
    OFFSET 0.000000 -39.417092 -0.003189
    CHANNELS 3 Yrotation Xrotation Zrotation
    JOINT LeftToe
    {
     OFFSET 0.000000 -7.579396 17.243563
     CHANNELS 3 Yrotation Xrotation Zrotation
     End Site
     {
      OFFSET 0.000000 -1.500329 6.694466
     }
    }
   }
  }
 }
}
MOTION
Frames: 12
Frame Time: 0.008333
-12.272109 86.624929 -15.365358 -51.581019 2.258249 18.024006 -3.511296 14.903533 0.867244 -1.546311 8.346944 1.577687 -1.901537 10.439899 1.941627 -1.546283 8.347000 1.577725 -2.285996 16.160323 -6.077239 -1.050405 -8.598491 -5.991358 3.750641 3.655081 -1.130103 -7.902199 -20.401190 79.110549 37.728690 -25.768992 0.264494 15.940972 -10.342210 -17.275993 -22.804836 4.645087 0.979550 5.909929 -37.631257 -82.569873 -26.680237 9.545162 -1.305758 -17.612751 -0.741484 10.184446 5.481309 -26.360691 -23.868358 13.932214 25.896987 5.007999 8.124669 -8.108333 11.048782 -0.238429 -0.429750 -0.540446 -1.089460 -55.187764 9.904938 166.994005 48.650393 -177.840774 -7.205163 -24.614146 -21.416950 0.011694 0.001790 0.118264
-12.440076 86.545413 -15.505608 -51.674141 2.754974 17.968447 -3.113261 14.631692 1.251104 -1.451014 8.288790 1.620251 -1.781313 10.366986 1.997348 -1.450989 8.288851 1.620286 -2.526228 16.277203 -6.113481 -1.300951 -8.469072 -5.978157 3.261411 3.709754 -0.809265 -8.353060 -20.005185 80.240668 37.395357 -25.152933 0.593737 16.080083 -10.288436 -17.251472 -22.321893 4.163020 0.613162 9.202625 -35.074009 -84.065405 -27.692064 8.789421 -1.568863 -17.771269 -0.765012 10.697831 5.239132 -25.644085 -23.585492 13.543168 23.863011 4.514720 8.037458 -9.063119 11.140836 -0.435855 0.349822 -0.367550 -1.835005 -54.924772 10.946297 167.777502 49.772087 -177.472041 -7.757364 -24.584661 -21.341553 0.079257 -0.056745 0.254651
-12.615942 86.451878 -15.596623 -51.675556 3.118914 17.942623 -2.780496 14.414461 1.620217 -1.366363 8.237366 1.669582 -1.674274 10.302526 2.061253 -1.366339 8.237427 1.669616 -2.797628 16.378366 -6.176294 -1.579562 -8.354389 -5.987937 2.787882 3.713942 -0.660963 -8.971309 -19.478379 81.403780 37.090329 -24.490811 1.002146 16.253107 -10.251481 -17.278054 -21.761661 3.686783 0.394936 12.215320 -32.501343 -85.381373 -28.726250 7.799007 -1.701497 -17.969410 -0.774088 11.214838 4.889292 -24.847806 -23.336820 13.151383 21.905493 4.038915 7.965805 -9.954296 11.187657 -0.557705 1.037806 -0.205226 -2.406016 -54.594110 11.736514 168.409854 50.854199 -177.133473 -8.290268 -24.582014 -21.203582 0.108047 -0.081607 0.318423
-12.800622 86.342993 -15.659111 -51.522185 3.408494 17.870340 -2.541869 14.186970 2.056454 -1.289528 8.187490 1.719963 -1.577020 10.240015 2.126265 -1.289502 8.187552 1.719995 -3.083367 16.456471 -6.249547 -1.871861 -8.263270 -6.006536 2.338088 3.706091 -0.658143 -9.501889 -18.809236 82.509573 36.892475 -23.990198 1.369984 16.486951 -10.248034 -17.394502 -21.174555 3.272616 0.323434 14.929981 -29.912668 -86.507264 -29.810297 6.497152 -1.712165 -18.197421 -0.795801 11.744325 4.339892 -24.050327 -23.026926 12.771903 20.006095 3.573986 7.910629 -10.779997 11.227172 -0.653092 1.636826 -0.079004 -3.043696 -54.421242 12.497160 168.920548 51.822863 -176.756971 -8.858659 -24.350366 -21.087628 0.147260 -0.264744 0.349837
-12.990749 86.229786 -15.662803 -51.400663 3.584971 17.929493 -2.288483 14.045632 2.351496 -1.212839 8.137381 1.768100 -1.480021 10.177185 2.188437 -1.212809 8.137447 1.768132 -3.373948 16.499410 -6.314912 -2.171664 -8.209893 -6.015642 1.900849 3.708950 -0.763632 -9.757126 -18.007883 83.487795 36.857065 -23.779705 1.609462 16.776656 -10.284587 -17.590515 -20.595764 2.922744 0.388884 17.357818 -27.342814 -87.444564 -30.924950 4.897319 -1.638985 -18.443166 -0.861866 12.315443 3.837968 -23.158654 -22.851189 12.424614 18.188991 3.119187 7.780421 -11.574490 11.276540 -0.675626 2.184417 0.024639 -3.235579 -54.025719 12.819371 169.228088 52.801611 -176.576836 -9.228277 -24.382347 -20.929626 0.107789 -0.201173 0.313999
-13.190724 86.109795 -15.633439 -51.244605 3.696084 18.004283 -2.042214 13.935385 2.626061 -1.129061 8.086013 1.812023 -1.374258 10.112717 2.245466 -1.129024 8.086090 1.812057 -3.663850 16.505873 -6.361194 -2.475452 -8.196381 -6.003991 1.467550 3.728439 -0.934037 -9.724446 -17.102593 84.285666 36.989054 -23.848822 1.725424 17.070916 -10.347659 -17.787855 -20.031028 2.623520 0.566347 19.540544 -24.847883 -88.206770 -32.022571 3.074335 -1.552809 -18.714479 -0.997685 12.963831 3.287719 -22.267889 -22.690712 12.111602 16.478979 2.686303 7.640567 -12.323394 11.349132 -0.674491 2.654112 0.088310 -3.294801 -53.620880 13.000417 169.433052 53.710795 -176.439611 -9.493969 -24.439035 -20.750185 0.045614 -0.110926 0.228762
-13.399420 85.987409 -15.576337 -51.061657 3.754963 18.093391 -1.793334 13.842023 2.883448 -1.036544 8.031199 1.851845 -1.257669 10.043868 2.297527 -1.036499 8.031286 1.851882 -3.947568 16.489271 -6.390081 -2.776932 -8.208233 -5.974682 1.043602 3.768838 -1.138683 -9.527764 -16.141296 84.902546 37.258476 -24.051266 1.743844 17.277479 -10.389972 -17.860883 -19.486532 2.372196 0.815266 21.554022 -22.461484 -88.802382 -33.079884 1.109538 -1.544820 -19.035032 -1.210640 13.698208 2.713370 -21.399828 -22.561686 11.829828 14.892276 2.290961 7.525700 -13.024392 11.438513 -0.651254 3.040322 0.122409 -3.256717 -53.220959 13.077626 169.535534 54.546312 -176.358995 -9.672788 -24.508832 -20.562279 -0.025007 -0.006351 0.111144
-13.625110 85.863734 -15.505407 -50.821607 3.740548 18.114363 -1.561834 13.771884 3.215451 -0.940071 7.970837 1.888867 -1.136233 9.968032 2.346142 -0.940018 7.970928 1.888907 -4.218556 16.468944 -6.414986 -3.066172 -8.223981 -5.944079 0.640787 3.841895 -1.372302 -9.276271 -15.181722 85.378672 37.627601 -24.225355 1.643501 17.327625 -10.352280 -17.737246 -18.960622 2.163483 1.084228 23.476153 -20.227044 -89.226668 -34.064082 -0.928706 -1.694655 -19.419493 -1.495784 14.486865 2.074903 -20.549696 -22.322263 11.560075 13.505620 1.946922 7.294514 -13.714444 11.428740 -0.441572 3.370288 0.209018 -3.310688 -52.806529 13.244921 169.541743 55.311074 -176.330787 -9.856853 -24.610532 -20.271812 -0.129453 0.091182 -0.056444
-13.833077 85.758014 -15.403781 -50.598793 3.753664 18.294702 -1.309272 13.637613 3.386009 -0.842598 7.906550 1.925680 -1.013593 9.887265 2.394484 -0.842542 7.906646 1.925722 -4.476879 16.458839 -6.451467 -3.339953 -8.227835 -5.929485 0.251557 3.941269 -1.632558 -9.015829 -14.261218 85.772287 38.060728 -24.259862 1.382137 17.241517 -10.223987 -17.474495 -18.448895 1.982159 1.335692 25.367200 -18.218422 -89.488784 -34.901284 -2.984139 -2.040250 -19.864356 -1.853895 15.285597 1.623396 -19.847848 -22.399077 11.338854 12.334953 1.663994 7.326239 -14.471631 11.583802 -0.509793 3.649697 0.156300 -3.086529 -52.446524 13.133208 169.438893 56.037566 -176.416504 -10.060989 -24.707025 -19.970508 -0.203515 0.185428 -0.197393
-14.046949 85.667493 -15.285528 -50.410983 3.702860 18.479651 -1.019808 13.527545 3.545652 -0.743825 7.841366 1.965023 -0.889297 9.805350 2.445986 -0.743768 7.841466 1.965067 -4.725139 16.465890 -6.510731 -3.598745 -8.211777 -5.942802 -0.136781 4.045904 -1.907805 -8.787674 -13.395999 86.140088 38.509356 -24.086933 0.959750 17.100905 -10.055265 -17.199755 -17.944310 1.823259 1.549122 27.229295 -16.470371 -89.578021 -35.562545 -5.042232 -2.579532 -20.344722 -2.294691 16.067502 1.273376 -19.108910 -22.516268 11.140153 11.283022 1.423563 7.306240 -15.274322 11.753200 -0.589572 3.961594 0.081657 -2.817415 -52.026800 13.012061 169.303672 56.701884 -176.536343 -10.150065 -24.836995 -19.903063 -0.189462 0.337009 -0.219688
-14.258716 85.595279 -15.169387 -50.170437 3.639323 18.622141 -0.754984 13.364521 3.740300 -0.645201 7.776044 2.007368 -0.765150 9.723242 2.501203 -0.645144 7.776143 2.007411 -4.960757 16.493539 -6.595533 -3.839128 -8.172051 -5.987643 -0.523849 4.142953 -2.184579 -8.616567 -12.598834 86.498881 38.921733 -23.721386 0.420599 16.977012 -9.898350 -17.010832 -17.433139 1.688880 1.722873 29.014663 -14.975703 -89.462523 -36.068479 -7.097610 -3.278080 -20.838347 -2.817128 16.824542 0.969757 -18.396942 -22.623708 10.964729 10.333946 1.234580 7.211331 -16.060960 11.929177 -0.682562 4.276953 -0.016570 -2.680404 -51.724362 12.968060 169.225869 57.266504 -176.583250 -10.174117 -24.825454 -19.924860 -0.189133 0.379398 -0.205473
-14.468352 85.545375 -15.052881 -49.909159 3.537267 18.737221 -0.498389 13.191148 3.937380 -0.548220 7.711549 2.052657 -0.643022 9.642155 2.560032 -0.548166 7.711647 2.052697 -5.180697 16.539633 -6.698798 -4.059188 -8.111415 -6.056756 -0.904779 4.219851 -2.451648 -8.511869 -11.882540 86.822966 39.257500 -23.241134 -0.161886 16.901349 -9.775909 -16.937928 -16.914886 1.575088 1.873095 30.673446 -13.729334 -89.133025 -36.437393 -9.140785 -4.079401 -21.338914 -3.386380 17.554326 0.757330 -17.667719 -22.758442 10.808406 9.472569 1.103270 7.075974 -16.791197 12.118877 -0.779813 4.575563 -0.136541 -2.582408 -51.428729 12.946538 169.248090 57.767912 -176.509731 -10.123825 -24.837098 -20.016620 -0.179334 0.412230 -0.157461
